<svg width="60" height="60" viewBox="0 0 60 60" fill="none" xmlns="http://www.w3.org/2000/svg">
<path d="M45.5078 20.5078L49.4922 24.4922C49.987 24.987 50.2344 25.5729 50.2344 26.25C50.2344 26.9271 49.987 27.513 49.4922 28.0078L31.7578 45.7422C31.263 46.237 30.6771 46.4844 30 46.4844C29.3229 46.4844 28.737 46.237 28.2422 45.7422L10.5078 28.0078C10.013 27.513 9.76562 26.9271 9.76562 26.25C9.76562 25.5729 10.013 24.987 10.5078 24.4922L14.4922 20.5078C14.987 20.013 15.5729 19.7656 16.25 19.7656C16.9271 19.7656 17.513 20.013 18.0078 20.5078L30 32.5L41.9922 20.5078C42.487 20.013 43.0729 19.7656 43.75 19.7656C44.4271 19.7656 45.013 20.013 45.5078 20.5078ZM60 30C60 24.5573 58.6589 19.5378 55.9766 14.9414C53.2943 10.3451 49.6549 6.70573 45.0586 4.02344C40.4622 1.34115 35.4427 0 30 0C24.5573 0 19.5378 1.34115 14.9414 4.02344C10.3451 6.70573 6.70573 10.3451 4.02344 14.9414C1.34115 19.5378 0 24.5573 0 30C0 35.4427 1.34115 40.4622 4.02344 45.0586C6.70573 49.6549 10.3451 53.2943 14.9414 55.9766C19.5378 58.6589 24.5573 60 30 60C35.4427 60 40.4622 58.6589 45.0586 55.9766C49.6549 53.2943 53.2943 49.6549 55.9766 45.0586C58.6589 40.4622 60 35.4427 60 30Z" fill="#9885F7"/>
</svg>
